# xmcd
#
# Track frame offsets:
#	150
#	18157
#	35433
#	57608
#	75657
#	91129
#	107005
#	122840
#	141101
#	156505
#
# Disc length: 2335 seconds
#
# Revision: 2
# Processed by: cddbd v1.5.2PL0 Copyright (c) Steve Scherf et al.
# Submitted via: EasyCDDAExtractor 15.3.0.1
#
DISCID=7e091d0a
DTITLE=Ricky Martin - A Quien Quiera Escuchar
DYEAR=2015
DGENRE=Latin
TTITLE0=Adios
TTITLE1=Disparo Al Corazon
TTITLE2=Isla Bella
TTITLE3=Perdoname
TTITLE4=Naufrago
TTITLE5=La Mordidita (Featuring Yotuel)
TTITLE6=Cuanto Me Acuerdo De Ti
TTITLE7=Matame Otra Vez
TTITLE8=Nada
TTITLE9=A Quien Quiera Escuchar
EXTD=
EXTT0=
EXTT1=
EXTT2=
EXTT3=
EXTT4=
EXTT5=
EXTT6=
EXTT7=
EXTT8=
EXTT9=
PLAYORDER=
